@startuml

!procedure group(x)
class x << (G,#DDAAFF) >>
!endprocedure

!procedure cdmGroup(x)
group(x) #DDEEFF
!endprocedure

!procedure field(x)
class x << (F,#DDFFAA) >> #White
!endprocedure

!procedure embeddedField(name, type, fieldType)
name <<type>>: fieldType
!endprocedure

!procedure rule(x)
class x << (R,#DDBBAA) >> #FFDDEE
!endprocedure

!procedure embeddedRule(name, type)
<back:FFDDEE>name() <<type>></back>
!endprocedure

!procedure embeddedRule(name, type, $errorCondition)
.. <back:FFDDEE> name <<type>> </back> ..
<back:FFDDEE>errorCondition:</back> $errorCondition
!endprocedure

!procedure computation(x)
class x << (C,#DDBBAA) >> #FFEEDD
!endprocedure

!procedure computationAlternative($operation, $precondition)
.. alternative ..
operation: $operation
precondition: $precondition
!endprocedure

!procedure embeddedComputation(name, type, $operation, $precondition)
.. <back:FFEEDD> name <<type>> </back> ..
<back:FFEEDD>operation:</back> $operation
<back:FFEEDD>precondition:</back> $precondition
!endprocedure

!procedure document(x)
class x << (D,#AADDBB) >> #PowderBlue
!endprocedure

!procedure embeddedComputation(name, type )
<back:FFEEDD>name() <<type>></back>
!endprocedure

!procedure linkDocument(x)
class x << (L,#AADDFF) >> #PeachPuff
!endprocedure

!procedure linkGroup(x)
group(x) #PeachPuff
!endprocedure

!procedure relLink($name,$rmId,$link1,$link2,$ld="")
circle $name as $rmId #PeachPuff
$rmId $link1
$rmId $link2
!if $ld!=""
$rmId -[#IndianRed]right $ld: <<linkDocument>>
linkDocument($ld)
!endif
!endprocedure

skinparam linetype polyline
left to right direction

title Compose Document Model RecursiveBusinessPartnerCDM<BusinessPartnerSuper}>

package "RecursiveBusinessPartnerCDM<BusinessPartnerSuper>" as RecursiveBusinessPartnerCDM <<Frame>> {
	() "documentRoot" as RecursiveBusinessPartnerCDMDocumentRoot
	group('"BusinessPartnerRoot" as include_1f446')
	group('"Attachment" as include_1f446_G77')
	field('"original_filename" as include_1f446_F21 <<StringType>>')
	include_1f446_G77 -- include_1f446_F21
	field('"internal_filename" as include_1f446_F22 <<StringType>>')
	include_1f446_G77 -- include_1f446_F22
	field('"content" as include_1f446_F23 <<StringType>>')
	include_1f446_G77 -- include_1f446_F23
	field('"attachment_id" as include_1f446_F24 <<StringType>>')
	include_1f446_G77 -- include_1f446_F24
	field('"size" as include_1f446_F25 <<NumberType>>')
	include_1f446_G77 -- include_1f446_F25
	field('"mime_type" as include_1f446_F26 <<StringType>>')
	include_1f446_G77 -- include_1f446_F26
	field('"category" as include_1f446_F27 <<StringType>>')
	include_1f446_G77 -- include_1f446_F27
	field('"description" as include_1f446_F28 <<StringType>>')
	include_1f446_G77 -- include_1f446_F28
	rule('"AttachmentInternalFilenameRequired" as include_1f446_R29') {
}
	include_1f446_G77 -- include_1f446_R29
	rule('"AttachmentMimeTypeRequired" as include_1f446_R30') {
}
	include_1f446_G77 -- include_1f446_R30
	rule('"AttachmentIdOrContentFilled" as include_1f446_R31') {
}
	include_1f446_G77 -- include_1f446_R31
	rule('"SizeOfContentFilled" as include_1f446_R32') {
}
	include_1f446_G77 -- include_1f446_R32

	include_1f446 ||--o{ "0..99" include_1f446_G77
	field('"Name" as include_1f446_field_fe6b2 <<StringType>>')
	include_1f446 -- include_1f446_field_fe6b2
	field('"Industry" as include_1f446_field_d6580 <<EnumerationType>>')
	include_1f446 -- include_1f446_field_d6580
	field('"StartOfRelationship" as include_1f446_field_663d2 <<DateType>>')
	include_1f446 -- include_1f446_field_663d2
	field('"CustomerDiscount" as include_1f446_field_74a24 <<EnumerationType>>')
	include_1f446 -- include_1f446_field_74a24
	group('"Employment" as include_1f446_G2')
	field('"income" as include_1f446_field_3920 <<NumberType>>')
	include_1f446_G2 -- include_1f446_field_3920
	field('"tax" as include_1f446_field_1c326 <<NumberType>>')
	include_1f446_G2 -- include_1f446_field_1c326
	computation('"TaxComputation" as include_1f446_computation_8a180') {
computes: ../tax
}
	include_1f446_G2 -- include_1f446_computation_8a180

	include_1f446 ||--o| "0..1" include_1f446_G2
	field('"PersonOrEntity" as include_1f446_field_114de <<StringType>>')
	include_1f446 -- include_1f446_field_114de

	RecursiveBusinessPartnerCDMDocumentRoot ||--o| "0..1" include_1f446

	cdmGroup('"ContractBusinessPartner" as include_4af42')
	group('"ContractRoot" as include_c08c7')
	field('"ContractName" as include_c08c7_field_770f2 <<StringType>>')
	include_c08c7 -- include_c08c7_field_770f2
	field('"ContractDescription" as include_c08c7_field_770f3 <<StringType>>')
	include_c08c7 -- include_c08c7_field_770f3
	field('"LengthOfContract" as include_c08c7_field_828da <<NumberType>>')
	include_c08c7 -- include_c08c7_field_828da
	field('"ContractValue" as include_c08c7_field_29708 <<NumberType>>')
	include_c08c7 -- include_c08c7_field_29708
	field('"Liability" as include_c08c7_field_edb7e <<NumberType>>')
	include_c08c7 -- include_c08c7_field_edb7e
	field('"CostToCustomer" as include_c08c7_field_502f7 <<NumberType>>')
	include_c08c7 -- include_c08c7_field_502f7
	field('"NoOfCoInsuredCustomers" as include_c08c7_field_f8187 <<NumberType>>')
	include_c08c7 -- include_c08c7_field_f8187
	field('"MaxDiscount" as include_c08c7_field_c472d <<StringType>>')
	include_c08c7 -- include_c08c7_field_c472d
	field('"CostPerCoInsured" as include_c08c7_field_24959 <<NumberType>>')
	include_c08c7 -- include_c08c7_field_24959
	field('"Valid" as include_c08c7_field_a09a6 <<BooleanType>>')
	include_c08c7 -- include_c08c7_field_a09a6
	field('"Type" as include_c08c7_field_48s48 <<EnumerationType>>')
	include_c08c7 -- include_c08c7_field_48s48
	group('"ContractDates" as include_c08c7_G2')
	field('"ContractStartDate" as include_c08c7_G2F1 <<DateTimeType>>')
	include_c08c7_G2 -- include_c08c7_G2F1
	field('"ContractEndDate" as include_c08c7_G2F2 <<DateType>>')
	include_c08c7_G2 -- include_c08c7_G2F2
	field('"ContractEndTime" as include_c08c7_G2F3 <<TimeType>>')
	include_c08c7_G2 -- include_c08c7_G2F3
	field('"ContractReviewDate" as include_c08c7_G2F4 <<DateFragmentType>>')
	include_c08c7_G2 -- include_c08c7_G2F4
	field('"LastPremiumPaidDate" as include_c08c7_G2F5 <<DateType>>')
	include_c08c7_G2 -- include_c08c7_G2F5
	field('"CoveragePeriod" as include_c08c7_G2F6 <<DateRangeType>>')
	include_c08c7_G2 -- include_c08c7_G2F6

	include_c08c7 ||--o| "0..1" include_c08c7_G2
	group('"ChangeLog" as include_c08c7_group_7a5d0')
	field('"ID" as include_c08c7_field_fbee9 <<StringType>>')
	include_c08c7_group_7a5d0 -- include_c08c7_field_fbee9
	field('"Number" as include_c08c7_field_f9502 <<NumberType>>')
	include_c08c7_group_7a5d0 -- include_c08c7_field_f9502
	field('"ChangeTimestamp" as include_c08c7_field_5b05b <<DateType>>')
	include_c08c7_group_7a5d0 -- include_c08c7_field_5b05b
	field('"Description" as include_c08c7_field_e1113 <<StringType>>')
	include_c08c7_group_7a5d0 -- include_c08c7_field_e1113
	field('"User" as include_c08c7_field_ccb79 <<StringType>>')
	include_c08c7_group_7a5d0 -- include_c08c7_field_ccb79
	field('"Status" as include_c08c7_field_980c8 <<TypeDefType>>')
	include_c08c7_group_7a5d0 -- include_c08c7_field_980c8
	field('"Priority" as include_c08c7_field_18ea0 <<EnumerationType>>')
	include_c08c7_group_7a5d0 -- include_c08c7_field_18ea0
	group('"Changes" as include_c08c7_group_61e6a')
	field('"ID" as include_c08c7_field_cdba0 <<StringType>>')
	include_c08c7_group_61e6a -- include_c08c7_field_cdba0
	field('"Title" as include_c08c7_field_bf1d6 <<StringType>>')
	include_c08c7_group_61e6a -- include_c08c7_field_bf1d6
	field('"Details" as include_c08c7_field_7de61 <<StringType>>')
	include_c08c7_group_61e6a -- include_c08c7_field_7de61
	field('"Priority" as include_c08c7_field_69efa <<EnumerationType>>')
	include_c08c7_group_61e6a -- include_c08c7_field_69efa
	field('"Status" as include_c08c7_field_1ecc4 <<TypeDefType>>')
	include_c08c7_group_61e6a -- include_c08c7_field_1ecc4
	field('"LastModified" as include_c08c7_field_3695e <<DateType>>')
	include_c08c7_group_61e6a -- include_c08c7_field_3695e
	group('"SubChanges" as include_c08c7_group_c4a35')
	field('"ID" as include_c08c7_field_26340 <<StringType>>')
	include_c08c7_group_c4a35 -- include_c08c7_field_26340
	field('"TItle" as include_c08c7_field_3c130 <<StringType>>')
	include_c08c7_group_c4a35 -- include_c08c7_field_3c130
	field('"Details" as include_c08c7_field_89b43 <<StringType>>')
	include_c08c7_group_c4a35 -- include_c08c7_field_89b43
	field('"Priority" as include_c08c7_field_6df38 <<EnumerationType>>')
	include_c08c7_group_c4a35 -- include_c08c7_field_6df38
	field('"Status" as include_c08c7_field_797cc <<TypeDefType>>')
	include_c08c7_group_c4a35 -- include_c08c7_field_797cc
	field('"CreatedAt" as include_c08c7_field_eb669 <<DateFragmentType>>')
	include_c08c7_group_c4a35 -- include_c08c7_field_eb669

	include_c08c7_group_61e6a ||--o{ "0..99" include_c08c7_group_c4a35

	include_c08c7_group_7a5d0 ||--o{ "0..99" include_c08c7_group_61e6a

	include_c08c7 ||--o{ "0..10000" include_c08c7_group_7a5d0

	include_4af42 ||--o| "0..1" include_c08c7
	cdmGroup('"ContractAmendment" as group_4bc79')
	group('"__meta" as group_4bc79_group_8f4b1')
	field('"docRef" as group_4bc79_field_1169c <<StringType>>')
	group_4bc79_group_8f4b1 -- group_4bc79_field_1169c
	field('"modelReference" as group_4bc79_field_cfb40 <<StringType>>')
	group_4bc79_group_8f4b1 -- group_4bc79_field_cfb40
	field('"modelVersion" as group_4bc79_field_17e3b <<StringType>>')
	group_4bc79_group_8f4b1 -- group_4bc79_field_17e3b
	field('"creator" as group_4bc79_field_cdaf9 <<StringType>>')
	group_4bc79_group_8f4b1 -- group_4bc79_field_cdaf9
	field('"createdAt" as group_4bc79_field_65672 <<DateTimeType>>')
	group_4bc79_group_8f4b1 -- group_4bc79_field_65672
	field('"modifier" as group_4bc79_field_1fa32 <<StringType>>')
	group_4bc79_group_8f4b1 -- group_4bc79_field_1fa32
	field('"modifiedAt" as group_4bc79_field_5cd66 <<DateTimeType>>')
	group_4bc79_group_8f4b1 -- group_4bc79_field_5cd66
	group('"extensions" as group_4bc79_group_4c9a1')

	group_4bc79_group_8f4b1 ||--o| "0..1" group_4bc79_group_4c9a1

	group_4bc79 ||--o| "0..1" group_4bc79_group_8f4b1

	include_4af42 ||--o{ "0..100" group_4bc79
	group('"__meta" as include_4af42_group_8f4b1')
	field('"docRef" as include_4af42_field_1169c <<StringType>>')
	include_4af42_group_8f4b1 -- include_4af42_field_1169c
	field('"modelReference" as include_4af42_field_cfb40 <<StringType>>')
	include_4af42_group_8f4b1 -- include_4af42_field_cfb40
	field('"modelVersion" as include_4af42_field_17e3b <<StringType>>')
	include_4af42_group_8f4b1 -- include_4af42_field_17e3b
	field('"creator" as include_4af42_field_cdaf9 <<StringType>>')
	include_4af42_group_8f4b1 -- include_4af42_field_cdaf9
	field('"createdAt" as include_4af42_field_65672 <<DateTimeType>>')
	include_4af42_group_8f4b1 -- include_4af42_field_65672
	field('"modifier" as include_4af42_field_1fa32 <<StringType>>')
	include_4af42_group_8f4b1 -- include_4af42_field_1fa32
	field('"modifiedAt" as include_4af42_field_5cd66 <<DateTimeType>>')
	include_4af42_group_8f4b1 -- include_4af42_field_5cd66
	group('"extensions" as include_4af42_group_4c9a1')

	include_4af42_group_8f4b1 ||--o| "0..1" include_4af42_group_4c9a1

	include_4af42 ||--o| "0..1" include_4af42_group_8f4b1

	RecursiveBusinessPartnerCDMDocumentRoot ||--o{ "0..100" include_4af42

	group('"__meta" as abc6a6767a60488754aace2accb73824_group_8f4b1')
	field('"docRef" as abc6a6767a60488754aace2accb73824_field_1169c <<StringType>>')
	abc6a6767a60488754aace2accb73824_group_8f4b1 -- abc6a6767a60488754aace2accb73824_field_1169c
	field('"modelReference" as abc6a6767a60488754aace2accb73824_field_cfb40 <<StringType>>')
	abc6a6767a60488754aace2accb73824_group_8f4b1 -- abc6a6767a60488754aace2accb73824_field_cfb40
	field('"modelVersion" as abc6a6767a60488754aace2accb73824_field_17e3b <<StringType>>')
	abc6a6767a60488754aace2accb73824_group_8f4b1 -- abc6a6767a60488754aace2accb73824_field_17e3b
	field('"creator" as abc6a6767a60488754aace2accb73824_field_cdaf9 <<StringType>>')
	abc6a6767a60488754aace2accb73824_group_8f4b1 -- abc6a6767a60488754aace2accb73824_field_cdaf9
	field('"createdAt" as abc6a6767a60488754aace2accb73824_field_65672 <<DateTimeType>>')
	abc6a6767a60488754aace2accb73824_group_8f4b1 -- abc6a6767a60488754aace2accb73824_field_65672
	field('"modifier" as abc6a6767a60488754aace2accb73824_field_1fa32 <<StringType>>')
	abc6a6767a60488754aace2accb73824_group_8f4b1 -- abc6a6767a60488754aace2accb73824_field_1fa32
	field('"modifiedAt" as abc6a6767a60488754aace2accb73824_field_5cd66 <<DateTimeType>>')
	abc6a6767a60488754aace2accb73824_group_8f4b1 -- abc6a6767a60488754aace2accb73824_field_5cd66
	group('"extensions" as abc6a6767a60488754aace2accb73824_group_4c9a1')

	abc6a6767a60488754aace2accb73824_group_8f4b1 ||--o| "0..1" abc6a6767a60488754aace2accb73824_group_4c9a1

	RecursiveBusinessPartnerCDMDocumentRoot ||--o| "0..1" abc6a6767a60488754aace2accb73824_group_8f4b1

}
@enduml
